<mxfile host="app.diagrams.net" agent="Mozilla/5.0 (Windows NT 10.0; Win64; x64) AppleWebKit/537.36 (KHTML, like Gecko) Chrome/140.0.0.0 Safari/537.36" version="28.2.5">
  <diagram name="Страница — 1" id="pJzVp6GYw4_Tx71KbGP1">
    <mxGraphModel dx="1281" dy="562" grid="1" gridSize="10" guides="1" tooltips="1" connect="1" arrows="1" fold="1" page="1" pageScale="1" pageWidth="1169" pageHeight="827" math="0" shadow="0">
      <root>
        <mxCell id="0" />
        <mxCell id="1" parent="0" />
        <mxCell id="-ahkWSV_0hNtq3BK-a6--1" value="&lt;p style=&quot;margin:0px;margin-top:4px;text-align:center;&quot;&gt;&lt;b&gt;Context&lt;/b&gt;&lt;/p&gt;&lt;p style=&quot;margin:0px;margin-top:4px;text-align:center;&quot;&gt;&lt;b&gt;(Transport)&lt;/b&gt;&lt;/p&gt;&lt;hr size=&quot;1&quot; style=&quot;border-style:solid;&quot;&gt;&lt;p style=&quot;margin:0px;margin-left:4px;&quot;&gt;+ privat final String route;&lt;/p&gt;&lt;p style=&quot;margin:0px;margin-left:4px;&quot;&gt;+ privat final String vehicle;&lt;/p&gt;&lt;p style=&quot;margin:0px;margin-left:4px;&quot;&gt;+ privat final int price;&lt;/p&gt;&lt;p style=&quot;margin:0px;margin-left:4px;&quot;&gt;+ privat final TransportType transportType;&lt;/p&gt;&lt;hr size=&quot;1&quot; style=&quot;border-style:solid;&quot;&gt;&lt;p style=&quot;margin:0px;margin-left:4px;&quot;&gt;+ Transport(&lt;span style=&quot;background-color: transparent; color: light-dark(rgb(0, 0, 0), rgb(255, 255, 255));&quot;&gt;String route,&amp;nbsp;&lt;/span&gt;&lt;span style=&quot;background-color: transparent; color: light-dark(rgb(0, 0, 0), rgb(255, 255, 255));&quot;&gt;String vehicle,&amp;nbsp;&lt;/span&gt;&lt;span style=&quot;background-color: transparent; color: light-dark(rgb(0, 0, 0), rgb(255, 255, 255));&quot;&gt;int price,&amp;nbsp;&lt;/span&gt;&lt;span style=&quot;background-color: transparent; color: light-dark(rgb(0, 0, 0), rgb(255, 255, 255));&quot;&gt;TransportType transportType&lt;/span&gt;&lt;span style=&quot;background-color: transparent; color: light-dark(rgb(0, 0, 0), rgb(255, 255, 255));&quot;&gt;);&lt;/span&gt;&lt;/p&gt;&lt;p style=&quot;margin:0px;margin-left:4px;&quot;&gt;&lt;span style=&quot;background-color: transparent; color: light-dark(rgb(0, 0, 0), rgb(255, 255, 255));&quot;&gt;+ delivery();&lt;/span&gt;&lt;/p&gt;" style="verticalAlign=top;align=left;overflow=fill;html=1;whiteSpace=wrap;" vertex="1" parent="1">
          <mxGeometry x="560" y="240" width="240" height="200" as="geometry" />
        </mxCell>
        <mxCell id="-ahkWSV_0hNtq3BK-a6--2" value="&lt;p style=&quot;margin:0px;margin-top:4px;text-align:center;&quot;&gt;&lt;b&gt;FlyweightFactory&lt;/b&gt;&lt;/p&gt;&lt;p style=&quot;margin:0px;margin-top:4px;text-align:center;&quot;&gt;&lt;b&gt;(TransportTypeFactor)&lt;/b&gt;&lt;/p&gt;&lt;hr size=&quot;1&quot; style=&quot;border-style:solid;&quot;&gt;&lt;p style=&quot;margin:0px;margin-left:4px;&quot;&gt;+&amp;nbsp;&lt;span style=&quot;font-family: &amp;quot;JetBrains Mono&amp;quot;, monospace; background-color: rgb(30, 31, 34); color: rgb(207, 142, 109);&quot;&gt;private static final &lt;/span&gt;&lt;span style=&quot;font-family: &amp;quot;JetBrains Mono&amp;quot;, monospace; background-color: rgb(30, 31, 34); color: rgb(188, 190, 196);&quot;&gt;Map&lt;/span&gt;&lt;span style=&quot;font-family: &amp;quot;JetBrains Mono&amp;quot;, monospace; background-color: rgb(30, 31, 34); color: rgb(232, 186, 54);&quot;&gt;&amp;lt;&lt;/span&gt;&lt;span style=&quot;font-family: &amp;quot;JetBrains Mono&amp;quot;, monospace; background-color: rgb(30, 31, 34); color: rgb(188, 190, 196);&quot;&gt;String, TransportType&lt;/span&gt;&lt;span style=&quot;font-family: &amp;quot;JetBrains Mono&amp;quot;, monospace; background-color: rgb(30, 31, 34); color: rgb(232, 186, 54);&quot;&gt;&amp;gt; &lt;/span&gt;&lt;span style=&quot;font-family: &amp;quot;JetBrains Mono&amp;quot;, monospace; background-color: rgb(30, 31, 34); color: rgb(199, 125, 187); font-style: italic;&quot;&gt;transportTypeMap&lt;/span&gt;&lt;/p&gt;&lt;hr size=&quot;1&quot; style=&quot;border-style:solid;&quot;&gt;&lt;p style=&quot;margin:0px;margin-left:4px;&quot;&gt;+&amp;nbsp;&lt;span style=&quot;font-family: &amp;quot;JetBrains Mono&amp;quot;, monospace; background-color: rgb(30, 31, 34); color: rgb(188, 190, 196);&quot;&gt;TransportType &lt;/span&gt;&lt;span style=&quot;font-family: &amp;quot;JetBrains Mono&amp;quot;, monospace; background-color: rgb(30, 31, 34); color: rgb(86, 168, 245);&quot;&gt;getTransportType&lt;/span&gt;&lt;span style=&quot;font-family: &amp;quot;JetBrains Mono&amp;quot;, monospace; background-color: rgb(30, 31, 34); color: rgb(232, 186, 54);&quot;&gt;(&lt;/span&gt;&lt;span style=&quot;font-family: &amp;quot;JetBrains Mono&amp;quot;, monospace; background-color: rgb(30, 31, 34); color: rgb(188, 190, 196);&quot;&gt;String transportType&lt;/span&gt;&lt;span style=&quot;font-family: &amp;quot;JetBrains Mono&amp;quot;, monospace; background-color: rgb(30, 31, 34); color: rgb(232, 186, 54);&quot;&gt;);&lt;/span&gt;&lt;/p&gt;" style="verticalAlign=top;align=left;overflow=fill;html=1;whiteSpace=wrap;" vertex="1" parent="1">
          <mxGeometry x="200" y="120" width="240" height="160" as="geometry" />
        </mxCell>
        <mxCell id="-ahkWSV_0hNtq3BK-a6--3" value="&lt;p style=&quot;margin:0px;margin-top:4px;text-align:center;&quot;&gt;&lt;b&gt;Flyweight&lt;/b&gt;&lt;/p&gt;&lt;p style=&quot;margin:0px;margin-top:4px;text-align:center;&quot;&gt;&lt;b&gt;(TransportType)&lt;/b&gt;&lt;/p&gt;&lt;hr size=&quot;1&quot; style=&quot;border-style:solid;&quot;&gt;&lt;p style=&quot;margin:0px;margin-left:4px;&quot;&gt;+&amp;nbsp;&lt;span style=&quot;background-color: transparent; color: light-dark(rgb(0, 0, 0), rgb(255, 255, 255));&quot;&gt;privat final String transportType;&lt;/span&gt;&lt;/p&gt;&lt;hr size=&quot;1&quot; style=&quot;border-style:solid;&quot;&gt;&lt;p style=&quot;margin:0px;margin-left:4px;&quot;&gt;+ TransportType(String transportType);&lt;/p&gt;&lt;p style=&quot;margin:0px;margin-left:4px;&quot;&gt;+ delivery(&lt;span style=&quot;background-color: transparent; color: light-dark(rgb(0, 0, 0), rgb(255, 255, 255));&quot;&gt;String route,&amp;nbsp;&lt;/span&gt;&lt;span style=&quot;background-color: transparent; color: light-dark(rgb(0, 0, 0), rgb(255, 255, 255));&quot;&gt;String vehicle,&amp;nbsp;&lt;/span&gt;&lt;span style=&quot;background-color: transparent; color: light-dark(rgb(0, 0, 0), rgb(255, 255, 255));&quot;&gt;int price&lt;/span&gt;&lt;span style=&quot;background-color: transparent; color: light-dark(rgb(0, 0, 0), rgb(255, 255, 255));&quot;&gt;);&lt;/span&gt;&lt;/p&gt;" style="verticalAlign=top;align=left;overflow=fill;html=1;whiteSpace=wrap;" vertex="1" parent="1">
          <mxGeometry x="200" y="360" width="240" height="160" as="geometry" />
        </mxCell>
        <mxCell id="-ahkWSV_0hNtq3BK-a6--4" value="Client" style="html=1;whiteSpace=wrap;" vertex="1" parent="1">
          <mxGeometry x="600" y="80" width="120" height="50" as="geometry" />
        </mxCell>
        <mxCell id="-ahkWSV_0hNtq3BK-a6--6" value="1" style="endArrow=open;html=1;endSize=12;startArrow=diamondThin;startSize=14;startFill=0;edgeStyle=orthogonalEdgeStyle;align=left;verticalAlign=bottom;rounded=0;entryX=0.25;entryY=0;entryDx=0;entryDy=0;exitX=0.25;exitY=1;exitDx=0;exitDy=0;" edge="1" parent="1" source="-ahkWSV_0hNtq3BK-a6--2" target="-ahkWSV_0hNtq3BK-a6--3">
          <mxGeometry x="-1" y="3" relative="1" as="geometry">
            <mxPoint x="500" y="290" as="sourcePoint" />
            <mxPoint x="660" y="290" as="targetPoint" />
          </mxGeometry>
        </mxCell>
        <mxCell id="-ahkWSV_0hNtq3BK-a6--7" value="1" style="endArrow=open;html=1;endSize=12;startArrow=diamondThin;startSize=14;startFill=1;edgeStyle=orthogonalEdgeStyle;align=left;verticalAlign=bottom;rounded=0;exitX=0.5;exitY=1;exitDx=0;exitDy=0;" edge="1" parent="1" source="-ahkWSV_0hNtq3BK-a6--4">
          <mxGeometry x="-1" y="3" relative="1" as="geometry">
            <mxPoint x="500" y="290" as="sourcePoint" />
            <mxPoint x="660" y="240" as="targetPoint" />
          </mxGeometry>
        </mxCell>
        <mxCell id="-ahkWSV_0hNtq3BK-a6--8" value="" style="endArrow=open;endFill=1;endSize=12;html=1;rounded=0;entryX=1;entryY=0.25;entryDx=0;entryDy=0;exitX=0;exitY=0.2;exitDx=0;exitDy=0;exitPerimeter=0;" edge="1" parent="1" source="-ahkWSV_0hNtq3BK-a6--1" target="-ahkWSV_0hNtq3BK-a6--2">
          <mxGeometry width="160" relative="1" as="geometry">
            <mxPoint x="500" y="290" as="sourcePoint" />
            <mxPoint x="660" y="290" as="targetPoint" />
          </mxGeometry>
        </mxCell>
        <mxCell id="-ahkWSV_0hNtq3BK-a6--9" value="" style="endArrow=open;endFill=1;endSize=12;html=1;rounded=0;entryX=1;entryY=0.5;entryDx=0;entryDy=0;exitX=0;exitY=0.75;exitDx=0;exitDy=0;" edge="1" parent="1" source="-ahkWSV_0hNtq3BK-a6--1" target="-ahkWSV_0hNtq3BK-a6--3">
          <mxGeometry width="160" relative="1" as="geometry">
            <mxPoint x="890" y="650" as="sourcePoint" />
            <mxPoint x="770" y="530" as="targetPoint" />
          </mxGeometry>
        </mxCell>
      </root>
    </mxGraphModel>
  </diagram>
</mxfile>
